<svg width="25" height="22" viewBox="0 0 25 22" fill="none" xmlns="http://www.w3.org/2000/svg">
<path id="Vector" d="M2.44444 2.44444H6.11111L8.55556 0H15.8889L18.3333 2.44444H22C22.6483 2.44444 23.2701 2.70198 23.7285 3.16041C24.1869 3.61883 24.4444 4.24058 24.4444 4.88889V19.5556C24.4444 20.2039 24.1869 20.8256 23.7285 21.284C23.2701 21.7425 22.6483 22 22 22H2.44444C1.79614 22 1.17438 21.7425 0.715961 21.284C0.257539 20.8256 0 20.2039 0 19.5556V4.88889C0 4.24058 0.257539 3.61883 0.715961 3.16041C1.17438 2.70198 1.79614 2.44444 2.44444 2.44444ZM12.2222 6.11111C10.6015 6.11111 9.04707 6.75496 7.90101 7.90101C6.75496 9.04707 6.11111 10.6015 6.11111 12.2222C6.11111 13.843 6.75496 15.3974 7.90101 16.5434C9.04707 17.6895 10.6015 18.3333 12.2222 18.3333C13.843 18.3333 15.3974 17.6895 16.5434 16.5434C17.6895 15.3974 18.3333 13.843 18.3333 12.2222C18.3333 10.6015 17.6895 9.04707 16.5434 7.90101C15.3974 6.75496 13.843 6.11111 12.2222 6.11111ZM12.2222 8.55556C13.1947 8.55556 14.1273 8.94186 14.8149 9.6295C15.5026 10.3171 15.8889 11.2498 15.8889 12.2222C15.8889 13.1947 15.5026 14.1273 14.8149 14.8149C14.1273 15.5026 13.1947 15.8889 12.2222 15.8889C11.2498 15.8889 10.3171 15.5026 9.6295 14.8149C8.94186 14.1273 8.55556 13.1947 8.55556 12.2222C8.55556 11.2498 8.94186 10.3171 9.6295 9.6295C10.3171 8.94186 11.2498 8.55556 12.2222 8.55556Z" fill="white"/>
</svg>
