<svg width="121" height="23" viewBox="0 0 121 23" fill="none" xmlns="http://www.w3.org/2000/svg">
<path d="M0.111844 0.76H2.63184V19.66H12.3518V22H0.111844V0.76ZM26.8238 19.45C25.9838 20.53 25.0638 21.29 24.0638 21.73C23.0638 22.15 21.9038 22.36 20.5838 22.36C19.4838 22.36 18.4938 22.17 17.6138 21.79C16.7338 21.39 15.9838 20.86 15.3638 20.2C14.7638 19.54 14.2938 18.76 13.9538 17.86C13.6338 16.96 13.4738 16 13.4738 14.98C13.4738 13.9 13.6538 12.91 14.0138 12.01C14.3738 11.09 14.8738 10.31 15.5138 9.67C16.1538 9.01 16.9138 8.5 17.7938 8.14C18.6738 7.78 19.6338 7.6 20.6738 7.6C21.6538 7.6 22.5538 7.77 23.3738 8.11C24.1938 8.43 24.8938 8.91 25.4738 9.55C26.0738 10.17 26.5338 10.94 26.8538 11.86C27.1738 12.76 27.3338 13.79 27.3338 14.95V15.7H15.9938C16.0338 16.3 16.1738 16.88 16.4138 17.44C16.6738 17.98 17.0038 18.46 17.4038 18.88C17.8038 19.28 18.2738 19.6 18.8138 19.84C19.3538 20.08 19.9438 20.2 20.5838 20.2C21.6038 20.2 22.4638 20.02 23.1638 19.66C23.8638 19.3 24.4938 18.77 25.0538 18.07L26.8238 19.45ZM24.8138 13.72C24.7738 12.52 24.3838 11.56 23.6438 10.84C22.9038 10.12 21.8838 9.76 20.5838 9.76C19.2838 9.76 18.2338 10.12 17.4338 10.84C16.6338 11.56 16.1538 12.52 15.9938 13.72H24.8138ZM34.1758 14.44L29.1358 7.96H32.1958L35.9158 13L39.4258 7.96H42.2758L37.4458 14.44L43.2358 22H40.1458L35.7058 15.94L31.3258 22H28.4158L34.1758 14.44ZM45.3478 7.96H47.6878V22H45.3478V7.96ZM44.8078 2.47C44.8078 2.01 44.9678 1.61 45.2878 1.27C45.6278 0.929999 46.0378 0.76 46.5178 0.76C46.9978 0.76 47.3978 0.929999 47.7178 1.27C48.0578 1.61 48.2278 2.01 48.2278 2.47C48.2278 2.97 48.0678 3.38 47.7478 3.7C47.4278 4.02 47.0178 4.18 46.5178 4.18C46.0178 4.18 45.6078 4.02 45.2878 3.7C44.9678 3.38 44.8078 2.97 44.8078 2.47ZM52.3568 0.76H54.8768V19.66H64.5968V22H52.3568V0.76ZM79.0688 19.45C78.2288 20.53 77.3088 21.29 76.3088 21.73C75.3088 22.15 74.1488 22.36 72.8288 22.36C71.7288 22.36 70.7388 22.17 69.8588 21.79C68.9788 21.39 68.2288 20.86 67.6088 20.2C67.0088 19.54 66.5388 18.76 66.1988 17.86C65.8788 16.96 65.7188 16 65.7188 14.98C65.7188 13.9 65.8988 12.91 66.2588 12.01C66.6188 11.09 67.1188 10.31 67.7588 9.67C68.3988 9.01 69.1588 8.5 70.0388 8.14C70.9188 7.78 71.8788 7.6 72.9188 7.6C73.8988 7.6 74.7988 7.77 75.6188 8.11C76.4388 8.43 77.1388 8.91 77.7188 9.55C78.3188 10.17 78.7788 10.94 79.0988 11.86C79.4188 12.76 79.5788 13.79 79.5788 14.95V15.7H68.2388C68.2788 16.3 68.4188 16.88 68.6588 17.44C68.9188 17.98 69.2488 18.46 69.6488 18.88C70.0488 19.28 70.5188 19.6 71.0588 19.84C71.5988 20.08 72.1888 20.2 72.8288 20.2C73.8488 20.2 74.7088 20.02 75.4088 19.66C76.1088 19.3 76.7388 18.77 77.2988 18.07L79.0688 19.45ZM77.0588 13.72C77.0188 12.52 76.6288 11.56 75.8888 10.84C75.1488 10.12 74.1288 9.76 72.8288 9.76C71.5288 9.76 70.4788 10.12 69.6788 10.84C68.8788 11.56 68.3988 12.52 68.2388 13.72H77.0588ZM82.6107 9.76C83.3307 9.02 84.1807 8.48 85.1607 8.14C86.1607 7.78 87.1707 7.6 88.1907 7.6C90.2707 7.6 91.7707 8.09 92.6907 9.07C93.6107 10.05 94.0707 11.54 94.0707 13.54V19.57C94.0707 19.97 94.0907 20.39 94.1307 20.83C94.1707 21.25 94.2207 21.64 94.2807 22H92.0307C91.9507 21.68 91.9007 21.33 91.8807 20.95C91.8807 20.55 91.8807 20.2 91.8807 19.9H91.8207C91.3607 20.62 90.7407 21.21 89.9607 21.67C89.2007 22.13 88.2807 22.36 87.2007 22.36C86.4807 22.36 85.8007 22.27 85.1607 22.09C84.5407 21.91 83.9907 21.65 83.5107 21.31C83.0507 20.95 82.6807 20.51 82.4007 19.99C82.1207 19.47 81.9807 18.87 81.9807 18.19C81.9807 17.03 82.2807 16.12 82.8807 15.46C83.4807 14.8 84.2207 14.31 85.1007 13.99C86.0007 13.67 86.9607 13.47 87.9807 13.39C89.0207 13.31 89.9707 13.27 90.8307 13.27H91.7307V12.85C91.7307 11.83 91.4207 11.06 90.8007 10.54C90.2007 10.02 89.3507 9.76 88.2507 9.76C87.4907 9.76 86.7407 9.89 86.0007 10.15C85.2807 10.39 84.6407 10.77 84.0807 11.29L82.6107 9.76ZM89.3907 15.25C87.8907 15.25 86.7007 15.46 85.8207 15.88C84.9407 16.3 84.5007 16.99 84.5007 17.95C84.5007 18.83 84.7907 19.46 85.3707 19.84C85.9707 20.2 86.7107 20.38 87.5907 20.38C88.2707 20.38 88.8607 20.27 89.3607 20.05C89.8807 19.81 90.3107 19.5 90.6507 19.12C90.9907 18.74 91.2507 18.3 91.4307 17.8C91.6107 17.28 91.7107 16.73 91.7307 16.15V15.25H89.3907ZM97.9394 11.29C97.9394 10.65 97.9194 10.05 97.8794 9.49C97.8394 8.93 97.8194 8.42 97.8194 7.96H100.039C100.039 8.34 100.049 8.72 100.069 9.1C100.089 9.48 100.099 9.87 100.099 10.27H100.159C100.319 9.93 100.539 9.6 100.819 9.28C101.119 8.96 101.469 8.68 101.869 8.44C102.269 8.18 102.719 7.98 103.219 7.84C103.719 7.68 104.259 7.6 104.839 7.6C104.999 7.6 105.159 7.61 105.319 7.63C105.479 7.65 105.639 7.69 105.799 7.75L105.649 10.12C105.249 10 104.829 9.94 104.389 9.94C102.949 9.94 101.899 10.41 101.239 11.35C100.599 12.27 100.279 13.54 100.279 15.16V22H97.9394V11.29ZM108.078 11.29C108.078 10.65 108.058 10.05 108.018 9.49C107.978 8.93 107.958 8.42 107.958 7.96H110.178C110.178 8.34 110.188 8.72 110.208 9.1C110.228 9.48 110.238 9.87 110.238 10.27H110.298C110.458 9.93 110.678 9.6 110.958 9.28C111.258 8.96 111.608 8.68 112.008 8.44C112.408 8.18 112.858 7.98 113.358 7.84C113.858 7.68 114.398 7.6 114.978 7.6C115.898 7.6 116.688 7.74 117.348 8.02C118.028 8.3 118.588 8.69 119.028 9.19C119.468 9.69 119.788 10.3 119.988 11.02C120.208 11.72 120.318 12.49 120.318 13.33V22H117.978V13.57C117.978 12.39 117.718 11.46 117.198 10.78C116.678 10.1 115.868 9.76 114.768 9.76C114.008 9.76 113.348 9.89 112.788 10.15C112.248 10.41 111.798 10.78 111.438 11.26C111.098 11.74 110.838 12.31 110.658 12.97C110.498 13.63 110.418 14.36 110.418 15.16V22H108.078V11.29Z" fill="white"/>
</svg>
