<svg width="45" height="45" viewBox="0 0 45 45" fill="none" xmlns="http://www.w3.org/2000/svg">
<g clip-path="url(#clip0_477_88)">
<path d="M30.9375 15H27.0262L29.4506 12.5756C29.6247 12.4015 29.7628 12.1948 29.857 11.9674C29.9512 11.7399 29.9997 11.4962 29.9997 11.25C29.9997 11.0038 29.9512 10.76 29.857 10.5325C29.7628 10.3051 29.6247 10.0984 29.4506 9.92434C29.2765 9.75025 29.0699 9.61216 28.8424 9.51795C28.615 9.42374 28.3712 9.37524 28.125 9.37524C27.8788 9.37524 27.635 9.42374 27.4076 9.51795C27.1801 9.61216 26.9735 9.75025 26.7994 9.92434L19.8488 16.875L26.7994 23.8256C26.9731 24.0003 27.1797 24.139 27.4072 24.2336C27.6347 24.3282 27.8786 24.3769 28.125 24.3769C28.3714 24.3769 28.6153 24.3282 28.8428 24.2336C29.0703 24.139 29.2769 24.0003 29.4506 23.8256C29.6249 23.6516 29.7632 23.445 29.8575 23.2175C29.9518 22.99 30.0004 22.7462 30.0004 22.5C30.0004 22.2537 29.9518 22.0099 29.8575 21.7824C29.7632 21.5549 29.6249 21.3483 29.4506 21.1743L27.0262 18.75H30.9375C33.5231 18.75 35.625 21.2737 35.625 24.375C35.625 27.4762 33.1013 30 30 30H15C11.8987 30 9.375 27.4762 9.375 24.375C9.375 21.2737 11.8987 18.75 15 18.75C15.4973 18.75 15.9742 18.5524 16.3258 18.2008C16.6775 17.8492 16.875 17.3722 16.875 16.875C16.875 16.3777 16.6775 15.9008 16.3258 15.5491C15.9742 15.1975 15.4973 15 15 15C9.83063 15 5.625 19.2056 5.625 24.375C5.625 29.5443 9.83063 33.75 15 33.75H30C35.1694 33.75 39.375 29.5443 39.375 24.375C39.375 19.2056 35.5894 15 30.9375 15Z" fill="white"/>
</g>
<defs>
<clipPath id="clip0_477_88">
<rect width="45" height="45" fill="white"/>
</clipPath>
</defs>
</svg>
