<svg width="45" height="32" viewBox="0 0 45 32" fill="none" xmlns="http://www.w3.org/2000/svg">
<path d="M6.13636 20.45H8.4375L9.61363 17.15H14.9318L16.1591 20.45H18.4091L13.4489 7.55H11.0966L6.13636 20.45ZM10.2784 15.3L12.2216 9.95H12.3239L14.267 15.3H10.2784ZM26.5909 11.8V8.4C27.7159 7.93333 28.8668 7.58333 30.0436 7.35C31.2204 7.11667 32.4559 7 33.75 7C34.6363 7 35.5057 7.06667 36.3579 7.2C37.2102 7.33333 38.0454 7.5 38.8636 7.7V10.9C38.0454 10.6 37.2184 10.3753 36.3825 10.226C35.5466 10.0767 34.6691 10.0013 33.75 10C32.4545 10 31.2102 10.1587 30.017 10.476C28.8239 10.7933 27.6818 11.2347 26.5909 11.8ZM26.5909 22.8V19.4C27.7159 18.9333 28.8668 18.5833 30.0436 18.35C31.2204 18.1167 32.4559 18 33.75 18C34.6363 18 35.5057 18.0667 36.3579 18.2C37.2102 18.3333 38.0454 18.5 38.8636 18.7V21.9C38.0454 21.6 37.2184 21.3753 36.3825 21.226C35.5466 21.0767 34.6691 21.0013 33.75 21C32.4545 21 31.2102 21.15 30.017 21.45C28.8239 21.75 27.6818 22.2 26.5909 22.8ZM26.5909 17.3V13.9C27.7159 13.4333 28.8668 13.0833 30.0436 12.85C31.2204 12.6167 32.4559 12.5 33.75 12.5C34.6363 12.5 35.5057 12.5667 36.3579 12.7C37.2102 12.8333 38.0454 13 38.8636 13.2V16.4C38.0454 16.1 37.2184 15.8753 36.3825 15.726C35.5466 15.5767 34.6691 15.5013 33.75 15.5C32.4545 15.5 31.2102 15.6587 30.017 15.976C28.8239 16.2933 27.6818 16.7347 26.5909 17.3ZM11.25 24C12.8523 24 14.4123 24.1753 15.93 24.526C17.4477 24.8767 18.9559 25.4013 20.4545 26.1V6.4C19.0568 5.6 17.5739 5 16.0057 4.6C14.4375 4.2 12.8523 4 11.25 4C10.0227 4 8.80363 4.11667 7.59272 4.35C6.38182 4.58333 5.21454 4.93333 4.09091 5.4V25.2C5.28409 24.8 6.46909 24.5 7.64591 24.3C8.82272 24.1 10.0241 24 11.25 24ZM24.5454 26.1C26.0454 25.4 27.5536 24.8747 29.07 24.524C30.5863 24.1733 32.1464 23.9987 33.75 24C34.9773 24 36.1793 24.1 37.3561 24.3C38.5329 24.5 39.7173 24.8 40.9091 25.2V5.4C39.7841 4.93333 38.6161 4.58333 37.4052 4.35C36.1943 4.11667 34.9759 4 33.75 4C32.1477 4 30.5625 4.2 28.9943 4.6C27.4261 5 25.9432 5.6 24.5454 6.4V26.1ZM22.5 32C20.8636 30.7333 19.0909 29.75 17.1818 29.05C15.2727 28.35 13.2954 28 11.25 28C9.81818 28 8.41159 28.1833 7.03022 28.55C5.64886 28.9167 4.32818 29.4333 3.06818 30.1C2.35227 30.4667 1.66227 30.45 0.998182 30.05C0.334091 29.65 0.00136364 29.0667 0 28.3V4.2C0 3.83333 0.0940909 3.48333 0.282273 3.15C0.470454 2.81667 0.751363 2.56667 1.125 2.4C2.69318 1.6 4.32954 1 6.03409 0.6C7.73863 0.2 9.47727 0 11.25 0C13.2273 0 15.1623 0.25 17.055 0.75C18.9477 1.25 20.7627 2 22.5 3C24.2386 2 26.0543 1.25 27.947 0.75C29.8398 0.25 31.7741 0 33.75 0C35.5227 0 37.2613 0.2 38.9659 0.6C40.6704 1 42.3068 1.6 43.875 2.4C44.25 2.56667 44.5316 2.81667 44.7198 3.15C44.9079 3.48333 45.0013 3.83333 45 4.2V28.3C45 29.0667 44.6679 29.65 44.0038 30.05C43.3398 30.45 42.6491 30.4667 41.9318 30.1C40.6704 29.4333 39.3498 28.9167 37.9698 28.55C36.5898 28.1833 35.1832 28 33.75 28C31.7045 28 29.7273 28.35 27.8182 29.05C25.9091 29.75 24.1364 30.7333 22.5 32ZM11.25 24C10.0241 24 8.82272 24.1 7.64591 24.3C6.46909 24.5 5.28409 24.8 4.09091 25.2V5.4C5.21454 4.93333 6.38182 4.58333 7.59272 4.35C8.80363 4.11667 10.0227 4 11.25 4C12.8523 4 14.4375 4.2 16.0057 4.6C17.5739 5 19.0568 5.6 20.4545 6.4V26.1C18.9545 25.4 17.4464 24.8747 15.93 24.524C14.4136 24.1733 12.8536 23.9987 11.25 24Z" fill="white"/>
</svg>
