<svg width="45" height="45" viewBox="0 0 45 45" fill="none" xmlns="http://www.w3.org/2000/svg">
<path fill-rule="evenodd" clip-rule="evenodd" d="M0 8.33906C0 5.2875 2.475 2.8125 5.52656 2.8125H13.4212C16.4728 2.8125 18.9478 5.2875 18.9478 8.33906V9.91687C18.9478 12.9712 16.4728 15.4434 13.4212 15.4434H5.52656C4.06083 15.4434 2.65512 14.8612 1.61869 13.8247C0.582261 12.7883 0 11.3826 0 9.91687L0 8.33906ZM5.52656 7.55156C5.42315 7.55156 5.32074 7.57193 5.2252 7.61151C5.12966 7.65108 5.04284 7.70909 4.96972 7.78222C4.89659 7.85534 4.83858 7.94216 4.79901 8.0377C4.75943 8.13324 4.73906 8.23565 4.73906 8.33906V9.91687C4.73869 10.0205 4.75879 10.1232 4.7982 10.2191C4.83761 10.315 4.89556 10.4021 4.96872 10.4755C5.04188 10.549 5.12882 10.6072 5.22455 10.647C5.32028 10.6867 5.42291 10.7072 5.52656 10.7072H13.4212C13.5247 10.7072 13.6271 10.6868 13.7226 10.6472C13.8182 10.6077 13.905 10.5497 13.9781 10.4765C14.0512 10.4034 14.1092 10.3166 14.1488 10.2211C14.1884 10.1255 14.2087 10.0231 14.2087 9.91969V8.33906C14.2087 8.23565 14.1884 8.13324 14.1488 8.0377C14.1092 7.94216 14.0512 7.85534 13.9781 7.78222C13.905 7.70909 13.8182 7.65108 13.7226 7.61151C13.6271 7.57193 13.5247 7.55156 13.4212 7.55156H5.52656ZM22.8938 9.12937C22.8938 7.82156 23.9541 6.76125 25.2619 6.76125H42.6319C43.2599 6.76125 43.8623 7.01075 44.3064 7.45486C44.7505 7.89897 45 8.50131 45 9.12937C45 9.75744 44.7505 10.3598 44.3064 10.8039C43.8623 11.248 43.2599 11.4975 42.6319 11.4975H25.2619C24.6338 11.4975 24.0315 11.248 23.5874 10.8039C23.1432 10.3598 22.8938 9.75744 22.8938 9.12937ZM0.7875 23.3381C0.7875 22.0303 1.85063 20.97 3.15844 20.97H33.1594C33.4704 20.97 33.7783 21.0313 34.0656 21.1503C34.3529 21.2693 34.614 21.4437 34.8339 21.6636C35.0538 21.8835 35.2282 22.1446 35.3472 22.4319C35.4662 22.7192 35.5275 23.0271 35.5275 23.3381C35.5275 23.6491 35.4662 23.9571 35.3472 24.2444C35.2282 24.5317 35.0538 24.7927 34.8339 25.0126C34.614 25.2325 34.3529 25.407 34.0656 25.526C33.7783 25.645 33.4704 25.7063 33.1594 25.7063H3.15844C2.84745 25.7063 2.53951 25.645 2.2522 25.526C1.96488 25.407 1.70382 25.2325 1.48392 25.0126C1.26402 24.7927 1.08958 24.5317 0.970575 24.2444C0.851566 23.9571 0.7875 23.6491 0.7875 23.3381ZM0.7875 37.5469C0.7875 36.2419 1.85063 35.1816 3.15844 35.1816H41.0541C41.3651 35.1816 41.673 35.2428 41.9603 35.3618C42.2476 35.4808 42.5087 35.6553 42.7286 35.8752C42.9485 36.0951 43.1229 36.3561 43.2419 36.6434C43.3609 36.9308 43.4222 37.2387 43.4222 37.5497C43.4222 37.8607 43.3609 38.1686 43.2419 38.4559C43.1229 38.7432 42.9485 39.0043 42.7286 39.2242C42.5087 39.4441 42.2476 39.6185 41.9603 39.7375C41.673 39.8566 41.3651 39.9178 41.0541 39.9178H3.15844C2.53037 39.9178 1.92803 39.6683 1.48392 39.2242C1.03981 38.7801 0.790312 38.1778 0.790312 37.5497L0.7875 37.5469Z" fill="white"/>
<path d="M41.8416 25.7062C42.1526 25.7062 42.4605 25.645 42.7478 25.526C43.0351 25.4069 43.2962 25.2325 43.5161 25.0126C43.736 24.7927 43.9104 24.5317 44.0294 24.2443C44.1484 23.957 44.2097 23.6491 44.2097 23.3381C44.2097 23.0271 44.1484 22.7192 44.0294 22.4319C43.9104 22.1445 43.736 21.8835 43.5161 21.6636C43.2962 21.4437 43.0351 21.2692 42.7478 21.1502C42.4605 21.0312 42.1526 20.97 41.8416 20.97C41.2135 20.97 40.6112 21.2195 40.1671 21.6636C39.7229 22.1077 39.4734 22.71 39.4734 23.3381C39.4734 23.9662 39.7229 24.5685 40.1671 25.0126C40.6112 25.4567 41.2135 25.7062 41.8416 25.7062Z" fill="white"/>
</svg>
